# xmcd
# 
# Track frame offsets:
#     150
#     16487
#     38895
#     60610
#     81252
#     98240
#     111787
#     131080
# 
# Disc length: 2205
# 
# Revision: 4
# Processed by: cddbd v1.5.2PL0 Copyright (c) Steve Scherf et al.
# Submitted via: fre:ac v1.0.27
# 
DISCID=66089b08
DTITLE=UFO - Lights Out
DYEAR=1977
DGENRE=Heavy Rock
TTITLE0=Too Hot To Handle
TTITLE1=Just Another Suicide
TTITLE2=Try Me
TTITLE3=Lights Out
TTITLE4=Gettin' Ready
TTITLE5=Alone Again Or
TTITLE6=Electric Phase
TTITLE7=Love To Love
EXTD=
EXTT0=
EXTT1=
EXTT2=
EXTT3=
EXTT4=
EXTT5=
EXTT6=
EXTT7=
PLAYORDER=
